<svg width="60" height="61" viewBox="0 0 60 61" fill="none" xmlns="http://www.w3.org/2000/svg">
<mask id="mask0_752_2238" style="mask-type:alpha" maskUnits="userSpaceOnUse" x="0" y="9" width="60" height="43">
<path fill-rule="evenodd" clip-rule="evenodd" d="M12.0308 24.3016L11.0508 24.9448C10.59 25.2473 9.87138 25.8798 9.3324 26.7223C8.79955 27.5552 8.49562 28.5032 8.66371 29.5105L8.86019 30.6881L6.56788 31.0918L6.37139 29.9143C6.07433 28.134 6.64256 26.5765 7.38887 25.4099C8.12905 24.2529 9.09664 23.3921 9.79866 22.9313L10.7786 22.2881L12.0308 24.3016Z" fill="#0EDEDA"/>
<path fill-rule="evenodd" clip-rule="evenodd" d="M30.7127 9.10303L59.7499 19.9306L42.7023 28.5612L41.5988 26.2582L53.3886 20.2894L30.6953 11.8274L7.08036 20.2744L18.7948 25.5525L17.792 27.9037L0.249512 19.9996L30.7127 9.10303Z" fill="#1363DF"/>
<path fill-rule="evenodd" clip-rule="evenodd" d="M40.5734 23.934C38.0225 23.0703 34.2703 22.1518 29.6954 22.2191C25.5791 22.2793 22.179 23.1164 19.7729 23.9303L17.8674 47.6035C23.154 45.2855 27.8371 44.9821 30.3381 44.9821C35.6695 44.9821 39.9628 46.3612 42.7808 47.5919C42.4349 43.8842 42.0889 40.1765 41.7429 36.4688C41.353 32.2906 40.9631 28.1123 40.5734 23.934ZM29.6598 19.6522C35.0849 19.5724 39.4325 20.7815 42.1585 21.7788L42.907 22.0527L42.9828 22.8656C43.398 27.3183 43.8136 31.771 44.2291 36.2237C44.6446 40.6764 45.0602 45.1292 45.4754 49.582L45.6065 50.988H43.9304L43.6627 50.8473C41.3575 49.6362 36.6314 47.5493 30.3381 47.5493C27.7493 47.5493 22.6172 47.9029 17.0136 50.8473L15.0156 51.8972L17.4175 22.0567L18.1768 21.7788C20.7826 20.8253 24.746 19.724 29.6598 19.6522Z" fill="#1363DF"/>
</mask>
<g mask="url(#mask0_752_2238)">
<path d="M-2.95068 -2.48975H60.0001V61.9949H-2.95068V-2.48975Z" fill="url(#paint0_linear_752_2238)"/>
</g>
<defs>
<linearGradient id="paint0_linear_752_2238" x1="-6.22937" y1="-1.49256" x2="57.6025" y2="62.7819" gradientUnits="userSpaceOnUse">
<stop stop-color="#00FEAF"/>
<stop offset="0.966472" stop-color="#3A6FD7"/>
</linearGradient>
</defs>
</svg>
