<svg width="61" height="61" viewBox="0 0 61 61" fill="none" xmlns="http://www.w3.org/2000/svg">
<mask id="mask0_765_977" style="mask-type:alpha" maskUnits="userSpaceOnUse" x="4" y="4" width="53" height="53">
<path fill-rule="evenodd" clip-rule="evenodd" d="M29.0986 44.1902V16.8105H31.9013V44.1902H29.0986Z" fill="#0EDEDA"/>
<path d="M34.8649 36.5263C34.8649 35.6756 34.5884 34.9738 34.0355 34.4209C33.4825 33.8679 32.7913 33.3788 31.9619 32.9534C31.1537 32.5281 30.2605 32.1134 29.2822 31.7093C28.3252 31.3052 27.432 30.8161 26.6025 30.2418C25.7944 29.6676 25.1138 28.9658 24.5609 28.1364C24.0079 27.2857 23.7314 26.2117 23.7314 24.9144C23.7314 24.2764 23.8484 23.6064 24.0824 22.9046C24.3376 22.2028 24.7416 21.5541 25.2946 20.9587C25.8475 20.3632 26.5706 19.874 27.4639 19.4912C28.3784 19.1084 29.5055 18.917 30.8454 18.917C32.6105 18.917 34.078 19.2998 35.2477 20.0654C36.4387 20.8098 37.2894 22.0433 37.7998 23.7659L35.0244 24.7549C34.6628 23.7128 34.0993 22.894 33.3336 22.2985C32.568 21.703 31.6003 21.4053 30.4306 21.4053C29.346 21.4053 28.4634 21.6924 27.7829 22.2666C27.1236 22.8408 26.7939 23.6383 26.7939 24.6592C26.7939 25.5311 27.0704 26.2542 27.6234 26.8284C28.1763 27.3814 28.8569 27.8812 29.665 28.3278C30.4944 28.7531 31.3877 29.1678 32.3447 29.5719C33.323 29.976 34.2162 30.4545 35.0244 31.0075C35.8538 31.5391 36.545 32.1984 37.098 32.9853C37.6509 33.7509 37.9274 34.7292 37.9274 35.9202C37.9274 36.5795 37.7998 37.2813 37.5446 38.0257C37.2894 38.7488 36.8746 39.4293 36.3004 40.0673C35.7262 40.6841 34.9606 41.1945 34.0036 41.5986C33.0678 42.0027 31.8981 42.2047 30.4944 42.2047C28.6017 42.2047 27.0172 41.7475 25.7412 40.833C24.4864 39.8972 23.5932 38.3766 23.0615 36.2711L25.805 35.2822C26.5494 38.2383 28.2082 39.7164 30.7816 39.7164C31.9725 39.7164 32.9508 39.4187 33.7164 38.8232C34.4821 38.2064 34.8649 37.4408 34.8649 36.5263Z" fill="#0EDEDA"/>
<path fill-rule="evenodd" clip-rule="evenodd" d="M30.5002 7.3779C17.7301 7.3779 7.3779 17.7301 7.3779 30.5002C7.3779 43.2703 17.7301 53.6225 30.5002 53.6225C43.2703 53.6225 53.6225 43.2703 53.6225 30.5002C53.6225 17.7301 43.2703 7.3779 30.5002 7.3779ZM4.5752 30.5002C4.5752 16.1822 16.1822 4.5752 30.5002 4.5752C44.8182 4.5752 56.4252 16.1822 56.4252 30.5002C56.4252 44.8182 44.8182 56.4252 30.5002 56.4252C16.1822 56.4252 4.5752 44.8182 4.5752 30.5002Z" fill="#1363DF"/>
</mask>
<g mask="url(#mask0_765_977)">
<path d="M-3 -2.5H61V62.25H-3V-2.5Z" fill="url(#paint0_linear_765_977)"/>
</g>
<defs>
<linearGradient id="paint0_linear_765_977" x1="-6.33333" y1="-1.49871" x2="57.7508" y2="63.8363" gradientUnits="userSpaceOnUse">
<stop stop-color="#00FEAF"/>
<stop offset="0.966472" stop-color="#3A6FD7"/>
</linearGradient>
</defs>
</svg>
