<svg width="61" height="60" viewBox="0 0 61 60" fill="none" xmlns="http://www.w3.org/2000/svg">
<mask id="mask0_752_2245" style="mask-type:alpha" maskUnits="userSpaceOnUse" x="1" y="5" width="59" height="50">
<path fill-rule="evenodd" clip-rule="evenodd" d="M5.3462 9.7213C11.119 4.0929 20.557 4.0929 26.3298 9.7213L30.4992 13.7865L34.6687 9.7213C40.3022 4.2287 49.4262 4.09618 55.2281 9.32374H55.2459L55.6537 9.7213C61.4265 15.3497 61.4265 24.5516 55.6537 30.18L30.7095 54.5003L22.0858 46.0923C21.277 45.5699 20.5095 44.964 19.7972 44.2696L5.3462 30.18C-0.426597 24.5516 -0.426597 15.3497 5.3462 9.7213ZM24.3609 11.6409C19.6755 7.0727 12.0005 7.0727 7.31507 11.6409C2.62965 16.2091 2.62965 23.6922 7.31507 28.2604L21.7661 42.35C22.373 42.9417 23.0301 43.4548 23.726 43.8946L23.8493 43.9725L30.7095 50.661L53.6848 28.2604C58.3337 23.7277 58.3699 16.3255 53.7934 11.7482L53.6834 11.6409C48.998 7.0727 41.323 7.0727 36.6376 11.6409L30.4992 17.6258L24.3609 11.6409Z" fill="#1363DF"/>
<path fill-rule="evenodd" clip-rule="evenodd" d="M29.1055 39.1102V20.3281H31.8899V39.1102H29.1055Z" fill="#0EDEDA"/>
<path fill-rule="evenodd" clip-rule="evenodd" d="M40.1301 31.0771H20.8662V28.3623H40.1301V31.0771Z" fill="#0EDEDA"/>
</mask>
<g mask="url(#mask0_752_2245)">
<path d="M-3 -2.45898H61V61.2295H-3V-2.45898Z" fill="url(#paint0_linear_752_2245)"/>
</g>
<defs>
<linearGradient id="paint0_linear_752_2245" x1="-6.33333" y1="-1.47411" x2="56.6715" y2="63.8311" gradientUnits="userSpaceOnUse">
<stop stop-color="#00FEAF"/>
<stop offset="0.966472" stop-color="#3A6FD7"/>
</linearGradient>
</defs>
</svg>
