<svg width="61" height="61" viewBox="0 0 61 61" fill="none" xmlns="http://www.w3.org/2000/svg">
<mask id="mask0_752_2262" style="mask-type:alpha" maskUnits="userSpaceOnUse" x="6" y="4" width="49" height="53">
<path fill-rule="evenodd" clip-rule="evenodd" d="M30.5 7.99707C30.4965 7.99707 30.493 7.99781 30.4898 7.99923L9.13983 17.4898C9.13982 17.4898 9.13984 17.4898 9.13983 17.4898C9.13543 17.4918 9.13166 17.495 9.12904 17.499C9.1264 17.5031 9.125 17.5078 9.125 17.5126V43.4878C9.125 43.4926 9.1264 43.4973 9.12904 43.5014C9.13164 43.5054 9.13533 43.5085 9.13967 43.5105C9.13961 43.5105 9.13972 43.5105 9.13967 43.5105L30.4898 53.0012C30.493 53.0026 30.4965 53.0033 30.5 53.0033C30.5035 53.0033 30.507 53.0026 30.5102 53.0012L51.8602 43.5106C51.8601 43.5106 51.8602 43.5106 51.8602 43.5106C51.8645 43.5086 51.8684 43.5054 51.871 43.5014C51.8736 43.4973 51.875 43.4926 51.875 43.4878V17.5126C51.875 17.5078 51.8736 17.5031 51.871 17.499C51.8683 17.495 51.8646 17.4918 51.8602 17.4898L30.5102 7.99923C30.507 7.99781 30.5035 7.99707 30.5 7.99707ZM7.61715 43.4881L6.125 43.4885C6.12514 44.0732 6.29475 44.6454 6.61329 45.1357C6.93182 45.626 7.38564 46.0135 7.91983 46.2513L7.92053 46.2516L29.2698 55.7419C29.2701 55.742 29.2703 55.7421 29.2705 55.7422C29.6576 55.9144 30.0764 56.0033 30.5 56.0033C30.9236 56.0033 31.3424 55.9144 31.7295 55.7422C31.7297 55.7421 31.7299 55.742 31.7302 55.7419L53.0795 46.2516L53.0802 46.2513C53.6143 46.0135 54.0682 45.626 54.3867 45.1357C54.7053 44.6453 54.8749 44.0732 54.875 43.4885V17.5119C54.8749 16.9272 54.7053 16.3551 54.3867 15.8647C54.0682 15.3744 53.6143 14.9869 53.0802 14.7491L31.7302 5.2585C31.7299 5.2584 31.7297 5.25829 31.7295 5.25819C31.3424 5.08603 30.9236 4.99707 30.5 4.99707C30.0764 4.99707 29.6576 5.08603 29.2705 5.25819C29.2703 5.25829 29.2701 5.2584 29.2698 5.2585L7.91983 14.7491C7.38565 14.9869 6.93182 15.3744 6.61329 15.8647C6.29475 16.3551 6.12514 16.9272 6.125 17.5119V43.4881H7.61715Z" fill="#1363DF"/>
<path fill-rule="evenodd" clip-rule="evenodd" d="M6.3635 16.4278C6.67974 15.6621 7.55682 15.2977 8.32251 15.614L30.5608 24.7987L52.6746 15.6151C53.4397 15.2974 54.3175 15.66 54.6352 16.4251C54.9529 17.1902 54.5903 18.068 53.8252 18.3857L31.1377 27.8076C30.7704 27.9601 30.3574 27.9605 29.9898 27.8087L7.1773 18.3868C6.41161 18.0706 6.04726 17.1935 6.3635 16.4278Z" fill="#1363DF"/>
<path fill-rule="evenodd" clip-rule="evenodd" d="M30.5469 25.0156C31.3753 25.0156 32.0469 25.6872 32.0469 26.5156V52.9219C32.0469 53.7503 31.3753 54.4219 30.5469 54.4219C29.7184 54.4219 29.0469 53.7503 29.0469 52.9219V26.5156C29.0469 25.6872 29.7184 25.0156 30.5469 25.0156Z" fill="#1363DF"/>
</mask>
<g mask="url(#mask0_752_2262)">
<path d="M-3 -2.5H61V62.25H-3V-2.5Z" fill="url(#paint0_linear_752_2262)"/>
</g>
<defs>
<linearGradient id="paint0_linear_752_2262" x1="-6.33333" y1="-1.49871" x2="57.7508" y2="63.8363" gradientUnits="userSpaceOnUse">
<stop stop-color="#00FEAF"/>
<stop offset="0.966472" stop-color="#3A6FD7"/>
</linearGradient>
</defs>
</svg>
