<svg width="61" height="61" viewBox="0 0 61 61" fill="none" xmlns="http://www.w3.org/2000/svg">
<mask id="mask0_752_2234" style="mask-type:alpha" maskUnits="userSpaceOnUse" x="4" y="4" width="53" height="54">
<path fill-rule="evenodd" clip-rule="evenodd" d="M23.772 5.50619C23.8873 4.92013 24.4012 4.49756 24.9985 4.49756H35.9981C36.5944 4.49756 37.1076 4.9187 37.224 5.50349L37.5302 7.04133L37.5316 7.0486L38.5557 12.0376C40.0502 12.6763 41.4646 13.4882 42.7697 14.4566L47.8251 12.7683C47.8336 12.7655 47.8422 12.7627 47.8507 12.7601L49.3782 12.2863C49.934 12.1139 50.5353 12.3479 50.8284 12.8507L51.6206 14.2096L55.5274 20.7446C55.5298 20.7486 55.5321 20.7525 55.5345 20.7565L56.33 22.1213C56.6319 22.6393 56.5236 23.2987 56.0718 23.6928L54.9085 24.7075C54.9046 24.711 54.9006 24.7144 54.8966 24.7178L51.041 27.9969C51.1707 28.7534 51.3026 29.6026 51.3026 30.4799C51.3026 31.3623 51.1707 32.2107 51.041 32.9664L54.8966 36.2455C54.9006 36.2489 54.9046 36.2523 54.9085 36.2558L56.0718 37.2705C56.5236 37.6646 56.6319 38.324 56.33 38.842L55.5345 40.2068L55.5276 40.2184L51.6205 46.7572L50.8284 48.1162C50.5348 48.6198 49.9321 48.8537 49.3756 48.6798L47.8482 48.2024C47.1893 47.9965 46.822 47.2954 47.028 46.6365C47.2339 45.9776 47.935 45.6103 48.5939 45.8162L49.1703 45.9964L49.4641 45.4924L49.471 45.4807L53.3781 38.9418L53.6499 38.4754L53.2711 38.145L48.8786 34.4091C48.544 34.1246 48.3833 33.6854 48.4553 33.2522C48.4846 33.0759 48.5138 32.9058 48.5422 32.7407C48.6827 31.9249 48.8026 31.2283 48.8026 30.4799C48.8026 29.7364 48.6824 29.0376 48.5417 28.2199C48.5135 28.0555 48.4844 27.8864 48.4553 27.7111C48.3833 27.2779 48.544 26.8387 48.8786 26.5541L53.271 22.8185L53.6499 22.4879L53.3781 22.0215L49.4711 15.4864C49.4688 15.4824 49.4664 15.4784 49.4641 15.4744L49.1692 14.9686L48.6043 15.1438L42.9316 17.0383C42.5306 17.1722 42.0891 17.0943 41.7581 16.8314C40.322 15.6904 38.7222 14.7723 37.0126 14.1078C36.6169 13.954 36.3263 13.6099 36.2409 13.1941L35.0812 7.544L35.0798 7.53673L34.9724 6.99756H26.0265L25.9209 7.53403L25.9187 7.54473L24.7555 13.1948C24.6699 13.6104 24.3794 13.9541 23.984 14.1078C22.2744 14.7723 20.6746 15.6904 19.2385 16.8314C18.9073 17.0945 18.4655 17.1723 18.0643 17.038L12.3932 15.1406L11.8292 14.967L11.5365 15.47C11.534 15.4744 11.5315 15.4787 11.5289 15.483L7.61942 22.0199L7.34696 22.4907L7.72624 22.8225L12.118 26.5577C12.4514 26.8412 12.6122 27.2784 12.542 27.7103C12.5089 27.9141 12.4757 28.109 12.4435 28.2972C12.3089 29.0861 12.194 29.7588 12.194 30.4834C12.194 31.2097 12.3094 31.8865 12.4444 32.6782C12.4763 32.865 12.5092 33.0582 12.542 33.26C12.6122 33.6922 12.4512 34.1296 12.1176 34.4131L7.72611 38.1444L7.34785 38.4754L7.61896 38.9426L11.5287 45.4765C11.5318 45.4817 11.5349 45.4869 11.5379 45.4922L11.8292 45.9954L12.391 45.8199L18.065 43.925C18.4633 43.792 18.9019 43.8679 19.2323 44.1271C20.6714 45.2556 22.2498 46.1928 23.9774 46.8529C24.376 47.0053 24.6694 47.3505 24.7555 47.7685L25.9187 53.4186L25.9209 53.4293L26.0265 53.9657H34.9724L35.0798 53.4266L37.5316 53.9147L37.224 55.4598C37.1076 56.0446 36.5944 56.4657 35.9981 56.4657H24.9985C24.4012 56.4657 23.8873 56.0432 23.772 55.4571L23.4701 53.9227L23.4679 53.912L22.442 48.929C20.9203 48.2832 19.5181 47.4565 18.2301 46.5056L13.1715 48.195C13.1638 48.1975 13.1561 48.2 13.1484 48.2024L11.6209 48.6798C11.0631 48.8541 10.459 48.6186 10.1662 48.1129L9.37879 46.7524L5.46942 40.2191C5.46655 40.2143 5.46372 40.2095 5.46091 40.2047L4.66891 38.8399C4.36881 38.3227 4.47695 37.6655 4.92692 37.2718L6.08664 36.257C6.09119 36.253 6.09578 36.2491 6.10039 36.2452L9.95678 32.9685C9.82807 32.2146 9.69402 31.3618 9.69402 30.4834C9.69402 29.6051 9.82809 28.7541 9.95676 28.0014L6.09994 24.7213C6.09548 24.7175 6.09105 24.7137 6.08664 24.7098L4.92692 23.6951C4.47735 23.3017 4.36895 22.6452 4.66821 22.1282L5.46021 20.7598C5.46319 20.7547 5.46621 20.7495 5.46927 20.7444L9.37946 14.2063L10.1677 12.8515C10.46 12.349 11.0603 12.1144 11.6159 12.2855L13.1433 12.7558C13.153 12.7587 13.1626 12.7618 13.1721 12.765L18.2272 14.4563C19.5324 13.4879 20.9468 12.6761 22.4413 12.0374L23.469 7.04584L23.772 5.50619ZM29.7124 21.8127C33.7358 21.1304 38.0675 22.9214 40.2681 26.7329C42.1942 30.069 42.0538 33.9754 40.1993 37.0005L48.5253 51.4216C49.4414 52.6995 48.7387 54.4015 47.43 55.0251L43.6486 57.2083C42.3844 57.9382 40.8317 57.5221 40.1018 56.2579L31.7394 41.7738C28.1923 41.8673 24.739 40.0357 22.813 36.6996C20.6313 32.9209 21.0648 28.215 23.8573 25.0658C24.1222 24.767 24.5139 24.6128 24.9114 24.6507C25.3088 24.6887 25.6642 24.9142 25.8678 25.2577L29.5046 31.3928L32.3493 29.7504L28.8388 23.6701C28.6341 23.3156 28.616 22.8834 28.7902 22.5131C28.9644 22.1427 29.3088 21.8811 29.7124 21.8127ZM32.028 24.194L35.1394 29.583C35.4845 30.1808 35.2797 30.9453 34.6818 31.2905L29.6844 34.1757C29.0914 34.5181 28.3333 34.3196 27.9842 33.7306L24.7157 28.2168C23.6126 30.4006 23.6405 33.1329 24.978 35.4496C26.5562 38.1831 29.4472 39.5497 32.2938 39.2319C32.7873 39.1768 33.2667 39.4191 33.515 39.8492L42.2669 55.0079C42.2843 55.0382 42.2997 55.0522 42.307 55.0579C42.3146 55.0638 42.3195 55.0654 42.3219 55.0661C42.3243 55.0667 42.3293 55.0677 42.3388 55.0664C42.3481 55.0651 42.3683 55.0607 42.3986 55.0432L46.2299 52.8312C46.2699 52.8081 46.3111 52.7873 46.3533 52.7688C46.3736 52.7599 46.3889 52.7503 46.4004 52.7411C46.3991 52.739 46.3979 52.7368 46.3966 52.7347L37.6447 37.576C37.3964 37.1459 37.4263 36.6096 37.7208 36.2097C39.4193 33.9034 39.6812 30.7164 38.103 27.9829C36.7953 25.7179 34.4639 24.3863 32.028 24.194Z" fill="#0EDEDA"/>
</mask>
<g mask="url(#mask0_752_2234)">
<path d="M-3 -2.5H61V62.25H-3V-2.5Z" fill="url(#paint0_linear_752_2234)"/>
</g>
<defs>
<linearGradient id="paint0_linear_752_2234" x1="-6.33333" y1="-1.49871" x2="57.7508" y2="63.8363" gradientUnits="userSpaceOnUse">
<stop stop-color="#00FEAF"/>
<stop offset="0.966472" stop-color="#3A6FD7"/>
</linearGradient>
</defs>
</svg>
